<svg id="Capa_1" enable-background="new 0 0 512 512" viewBox="0 0 512 512" xmlns="http://www.w3.org/2000/svg"><g fill="#ff84af"><path d="m271 139.512v86.737c3.071-.57 6.21-.869 9.386-.869 13.663 0 26.507 5.32 36.167 14.98 9.649 9.649 14.964 22.493 14.964 36.167 0 13.673-5.314 26.517-14.963 36.167l-60.669 60.667-60.451-60.449c-2.107-2.107-3.977-4.36-5.639-6.717h-85.477c7.56 77.031 72.699 137.422 151.683 137.422 84.045 0 152.421-68.376 152.421-152.422-.001-78.984-60.391-144.124-137.422-151.683z"/><path d="m216.646 261.793c-8.244 8.244-8.243 21.661 0 29.906l39.237 39.236 39.456-39.455c3.983-3.983 6.177-9.293 6.177-14.953s-2.194-10.97-6.178-14.954c-3.994-3.995-9.304-6.194-14.953-6.194-5.416 0-10.371 1.935-14.331 5.594l-10.093 9.329-10.174-9.241c-3.936-3.575-8.842-5.464-14.188-5.464-5.647.001-10.957 2.201-14.953 6.196z"/><path d="m195.433 240.58c9.662-9.661 22.506-14.981 36.167-14.981 3.178 0 6.323.295 9.399.867v-86.953c-72.095 7.075-129.608 64.588-136.683 136.683h76.174c.138-12.915 5.112-25.785 14.943-35.616z"/><path d="m290.03 43.089v-43.089h-68.06v43.089c11.215-1.118 19.03-2.7 34.03-2.7 14.563.001 22.815 1.582 34.03 2.7z"/><path d="m412.133 135.062c-41.705-41.705-97.154-64.672-156.133-64.672s-114.428 22.967-156.133 64.672-64.672 97.154-64.672 156.133 22.968 114.428 64.672 156.133 97.154 64.672 156.133 64.672 114.428-22.968 156.133-64.672 64.672-97.154 64.672-156.133-22.968-114.428-64.672-156.133zm-156.133 338.555c-100.587 0-182.421-81.834-182.421-182.422 0-100.587 81.834-182.421 182.421-182.421s182.421 81.834 182.421 182.421c0 100.588-81.834 182.422-182.421 182.422z"/></g><g/><g/><g/><g/><g/><g/><g/><g/><g/><g/><g/><g/><g/><g/><g/></svg>